<svg width="32" height="32" viewBox="0 0 32 32" xmlns="http://www.w3.org/2000/svg">
  <defs>
    <linearGradient id="gold" x1="0%" y1="0%" x2="100%" y2="100%">
      <stop offset="0%" stop-color="#C9A96E" />
      <stop offset="50%" stop-color="#E8C97A" />
      <stop offset="100%" stop-color="#C9A96E" />
    </linearGradient>
    <linearGradient id="navy" x1="0%" y1="0%" x2="0%" y2="100%">
      <stop offset="0%" stop-color="#243560" />
      <stop offset="100%" stop-color="#1A2744" />
    </linearGradient>
    <linearGradient id="pink" x1="0%" y1="0%" x2="100%" y2="100%">
      <stop offset="0%" stop-color="#FF5C8A" />
      <stop offset="50%" stop-color="#FF8FB1" />
      <stop offset="100%" stop-color="#FF5C8A" />
    </linearGradient>
  </defs>

  <rect width="32" height="32" rx="7" fill="url(#navy)" />

  <path d="M11.5 9 L13 6.5 L19 6.5 L20.5 9 Z" fill="url(#gold)" />

  <rect x="4" y="9" width="24" height="17" rx="2.5" fill="none" stroke="url(#gold)" stroke-width="1.4" />

  <circle cx="23.5" cy="12.5" r="0.9" fill="url(#gold)" />

  <path d="M16 22.5
           C 16 22.5, 9.5 18.8, 9.5 15
           C 9.5 13, 11 12, 12.5 12
           C 14 12, 15.4 12.8, 16 13.8
           C 16.6 12.8, 18 12, 19.5 12
           C 21 12, 22.5 13, 22.5 15
           C 22.5 18.8, 16 22.5, 16 22.5 Z"
    fill="url(#pink)" />

  <circle cx="14.2" cy="14.5" r="0.5" fill="#1A2744" opacity="0.5" />
</svg>
